<svg width="120" height="160" viewBox="0 0 120 160" fill="none" xmlns="http://www.w3.org/2000/svg">
  <rect x="2" y="2" width="27" height="37" rx="2" fill="#1a2332" stroke="#3b82f6" stroke-width="1"/>
  <rect x="32" y="2" width="27" height="37" rx="2" fill="#1a2332" stroke="#3b82f6" stroke-width="1"/>
  <rect x="62" y="2" width="27" height="37" rx="2" fill="#1a2332" stroke="#3b82f6" stroke-width="1"/>
  <rect x="92" y="2" width="26" height="37" rx="2" fill="#1a2332" stroke="#3b82f6" stroke-width="1"/>
  <rect x="2" y="43" width="27" height="37" rx="2" fill="#1a2332" stroke="#3b82f6" stroke-width="1"/>
  <rect x="32" y="43" width="27" height="37" rx="2" fill="#1a2332" stroke="#3b82f6" stroke-width="1"/>
  <rect x="62" y="43" width="27" height="37" rx="2" fill="#1a2332" stroke="#3b82f6" stroke-width="1"/>
  <rect x="92" y="43" width="26" height="37" rx="2" fill="#1a2332" stroke="#3b82f6" stroke-width="1"/>
  <rect x="2" y="84" width="27" height="37" rx="2" fill="#1a2332" stroke="#3b82f6" stroke-width="1"/>
  <rect x="32" y="84" width="27" height="37" rx="2" fill="#1a2332" stroke="#3b82f6" stroke-width="1"/>
  <rect x="62" y="84" width="27" height="37" rx="2" fill="#1a2332" stroke="#3b82f6" stroke-width="1"/>
  <rect x="92" y="84" width="26" height="37" rx="2" fill="#1a2332" stroke="#3b82f6" stroke-width="1"/>
</svg>
